<?xml version="1.0" encoding="utf-8"?>
<!-- Generator: Adobe Illustrator 17.0.0, SVG Export Plug-In . SVG Version: 6.00 Build 0)  -->
<!DOCTYPE svg PUBLIC "-//W3C//DTD SVG 1.1//EN" "http://www.w3.org/Graphics/SVG/1.1/DTD/svg11.dtd">
<svg version="1.1" id="Layer_1" xmlns="http://www.w3.org/2000/svg" xmlns:xlink="http://www.w3.org/1999/xlink" x="0px" y="0px"
	 width="200.492px" height="45.683px" viewBox="0 0 200.492 45.683" enable-background="new 0 0 200.492 45.683"
	 xml:space="preserve">
<path d="M191.837,44.902h7.874V15.088h-7.874V44.902z M192.378,8.325c0.921,0.902,2.044,1.353,3.366,1.353
	c1.322,0,2.443-0.451,3.366-1.353c0.921-0.902,1.382-2.033,1.382-3.396c0-1.322-0.461-2.434-1.382-3.336
	c-0.923-0.901-2.044-1.353-3.366-1.353c-1.322,0-2.445,0.451-3.366,1.353c-0.922,0.902-1.383,2.014-1.383,3.336
	C190.995,6.292,191.456,7.423,192.378,8.325 M180.194,44.902h7.874V0h-7.874V44.902z M169.314,32.58
	c0,1.322-0.181,2.434-0.543,3.336c-0.363,0.901-0.847,1.644-1.45,2.224c-0.605,0.581-1.309,1.003-2.115,1.263
	c-0.806,0.261-1.651,0.391-2.537,0.391c-1.612,0-2.85-0.341-3.716-1.022c-0.866-0.681-1.299-1.643-1.299-2.885
	c0-1.202,0.413-2.154,1.239-2.855c0.826-0.701,2.004-1.052,3.534-1.052h6.888V32.58z M177.43,44.902
	c-0.161-0.481-0.291-1.362-0.391-2.645c-0.101-1.282-0.15-2.645-0.15-4.088v-11.42c0-4.449-1.223-7.654-3.667-9.618
	c-2.445-1.963-5.57-2.945-9.377-2.945c-6.292,0-10.72,2.425-13.284,7.273l5.711,3.246c1.442-2.804,3.806-4.208,7.093-4.208
	c1.803,0,3.235,0.401,4.298,1.202c1.061,0.802,1.593,2.104,1.593,3.907v1.022h-8.656c-3.366,0-6.011,0.812-7.935,2.435
	c-1.923,1.623-2.885,3.937-2.885,6.942c0,3.005,0.992,5.371,2.976,7.093c1.984,1.723,4.598,2.584,7.844,2.584
	c2.043,0,3.826-0.361,5.35-1.082c1.522-0.722,2.684-1.643,3.486-2.765c0.08,0.562,0.15,1.103,0.21,1.623
	c0.06,0.521,0.13,1.002,0.211,1.442H177.43z M125.844,27.35c0.361-2.164,1.181-3.817,2.464-4.959
	c1.282-1.142,2.946-1.713,4.989-1.713c2.044,0,3.667,0.562,4.869,1.683c1.202,1.123,1.883,2.786,2.044,4.989H125.844z
	 M148.205,29.995c0-2.404-0.361-4.577-1.082-6.522c-0.722-1.943-1.724-3.606-3.006-4.989c-1.284-1.383-2.836-2.443-4.659-3.186
	c-1.824-0.741-3.838-1.112-6.04-1.112c-2.245,0-4.298,0.381-6.162,1.142c-1.863,0.762-3.456,1.843-4.778,3.246
	c-1.322,1.403-2.344,3.065-3.066,4.989c-0.721,1.923-1.082,4.068-1.082,6.431c0,2.325,0.361,4.459,1.082,6.402
	c0.722,1.944,1.743,3.597,3.066,4.959c1.322,1.363,2.905,2.426,4.749,3.186c1.843,0.761,3.866,1.142,6.071,1.142
	c3.126,0,5.921-0.732,8.385-2.194c2.464-1.462,4.238-3.516,5.32-6.161l-6.492-2.584c-1.442,2.846-3.847,4.267-7.213,4.267
	c-1.963,0-3.657-0.52-5.079-1.562c-1.423-1.042-2.254-2.604-2.495-4.689h22.481V29.995z M109.134,15.658
	c-1.463,0.661-2.515,1.634-3.156,2.916l-0.417-3.427h-7.217v29.755h7.875V30.776c0-2.805,0.691-4.99,2.073-6.552
	c1.383-1.563,3.336-2.344,5.861-2.344c1.162,0,2.284,0.141,3.366,0.42v-7.213c-1.243-0.28-2.405-0.42-3.486-0.42
	C112.23,14.667,110.597,14.997,109.134,15.658 M75.024,36.186c-1.409-1.602-2.112-3.686-2.112-6.251
	c0-2.564,0.704-4.648,2.112-6.252c1.408-1.603,3.279-2.405,5.612-2.405c2.293,0,4.153,0.802,5.582,2.405
	c1.427,1.603,2.142,3.687,2.142,6.252c0,2.565-0.715,4.649-2.142,6.251c-1.429,1.603-3.289,2.405-5.582,2.405
	C78.304,38.591,76.432,37.789,75.024,36.186 M74.295,15.418c-1.923,0.781-3.567,1.863-4.929,3.246
	c-1.363,1.383-2.426,3.036-3.186,4.959c-0.762,1.924-1.143,4.027-1.143,6.312c0,2.284,0.381,4.388,1.143,6.311
	c0.76,1.923,1.823,3.576,3.186,4.959c1.361,1.383,3.005,2.464,4.929,3.246c1.923,0.781,4.047,1.172,6.372,1.172
	c2.323,0,4.438-0.391,6.342-1.172c1.903-0.782,3.536-1.864,4.899-3.246c1.361-1.383,2.424-3.036,3.185-4.959
	c0.761-1.924,1.143-4.027,1.143-6.311c0-2.285-0.382-4.388-1.143-6.312c-0.761-1.923-1.824-3.576-3.185-4.959
	c-1.363-1.383-2.996-2.464-4.899-3.246c-1.904-0.782-4.018-1.172-6.342-1.172C78.342,14.246,76.218,14.636,74.295,15.418
	 M53.076,36.186c-1.524,1.563-3.507,2.344-5.951,2.344c-2.445,0-4.428-0.781-5.951-2.344c-1.523-1.563-2.284-3.667-2.284-6.311
	s0.761-4.749,2.284-6.311c1.523-1.563,3.506-2.344,5.951-2.344c2.443,0,4.427,0.781,5.951,2.344
	c1.523,1.562,2.285,3.667,2.285,6.311S54.599,34.623,53.076,36.186 M62.123,23.353c-0.742-1.984-1.754-3.646-3.036-4.989
	c-1.283-1.342-2.816-2.375-4.598-3.096c-1.784-0.721-3.737-1.082-5.861-1.082c-2.044,0-3.958,0.381-5.741,1.142
	c-1.784,0.762-3.196,1.864-4.237,3.306V0h-7.694v44.902h7.093l0.421-3.847c0.881,1.283,2.183,2.374,3.907,3.276
	c1.723,0.902,3.787,1.353,6.191,1.353c2.164,0,4.137-0.361,5.921-1.082c1.782-0.722,3.325-1.753,4.628-3.096
	c1.302-1.342,2.314-2.975,3.036-4.898c0.722-1.924,1.082-4.088,1.082-6.493C63.235,27.591,62.864,25.336,62.123,23.353
	 M0.842,44.902h7.874V15.088H0.842V44.902z M1.383,8.325c0.921,0.902,2.044,1.353,3.366,1.353s2.443-0.451,3.366-1.353
	c0.921-0.902,1.382-2.033,1.382-3.396c0-1.322-0.461-2.434-1.382-3.336C7.192,0.691,6.071,0.24,4.749,0.24S2.304,0.691,1.383,1.593
	C0.461,2.495,0,3.606,0,4.929C0,6.292,0.461,7.423,1.383,8.325"/>
</svg>
