<?xml version="1.0" encoding="utf-8"?>
<!-- Generator: Adobe Illustrator 25.0.1, SVG Export Plug-In . SVG Version: 6.00 Build 0)  -->
<svg version="1.1" id="Layer_1" xmlns="http://www.w3.org/2000/svg" xmlns:xlink="http://www.w3.org/1999/xlink" x="0px" y="0px"
	 viewBox="0 0 600 90" style="enable-background:new 0 0 600 90;" xml:space="preserve">
<style type="text/css">
	.st0{clip-path:url(#SVGID_2_);fill:#1D1D1B;}
</style>
<g>
	<defs>
		<rect id="SVGID_1_" x="0.41" width="602.77" height="90"/>
	</defs>
	<clipPath id="SVGID_2_">
		<use xlink:href="#SVGID_1_"  style="overflow:visible;"/>
	</clipPath>
	<path class="st0" d="M183.63,71.75v-2.1l-1.65-0.34c-3.12-0.68-3.34-0.79-3.4-2.04c-0.06-1.3-0.06-3.62-0.06-6.34V42.35
		c0-2.72,0-5.04,0.06-6.35c0.06-1.25,0.28-1.36,3.4-2.04l1.65-0.34v-2.09h-17.79v2.09l1.64,0.34c3.12,0.68,3.34,0.79,3.4,2.04
		c0.06,1.31,0.06,3.63,0.06,6.35v18.58c0,2.72,0,5.04-0.06,6.34c-0.06,1.25-0.28,1.36-3.4,2.04l-1.64,0.34v2.1H183.63z
		 M231.29,43.02c0-4.65-2.66-8.78-7.65-10.31c-2.72-0.91-5.32-1.19-11.05-1.19h-13.31v2.09l1.64,0.34c3.12,0.68,3.34,0.79,3.4,2.04
		c0.06,1.31,0.06,3.63,0.06,6.35v18.58c0,2.72,0,5.04-0.06,6.34c-0.06,1.25-0.28,1.36-3.4,2.04l-1.64,0.34v2.1h17.79v-2.1
		l-1.64-0.34c-3.12-0.68-3.34-0.79-3.4-2.04c-0.06-1.3-0.06-3.62-0.06-6.34V34.86c0.4-0.06,1.36-0.11,2.21-0.11
		c4.42,0,7.37,2.21,8.73,5.67c0.51,1.36,0.68,2.71,0.68,4.13c0,2.95-0.9,5.89-3.29,7.48c-1.75,1.13-3.97,1.47-6.29,1.25v2.26
		C224.32,57.47,231.29,51.52,231.29,43.02 M277.49,61.1h-2.32c-0.79,2.44-1.25,3.63-2.15,5.44c-0.85,1.76-1.82,2.04-8.45,2.04
		c-3.34,0-5.72-0.28-6.79-0.57V52.43c4.25,0,7.59,0.06,8.78,0.22c1.13,0.12,1.3,0.35,1.59,1.37c0.45,1.64,0.62,2.26,0.91,3.62h2.09
		V44.95h-2.09c-0.4,1.7-0.57,2.27-0.91,3.46c-0.22,0.74-0.56,0.79-1.59,0.91c-1.36,0.17-4.65,0.22-8.78,0.28V34.58
		c12.07,0,12.75,0.45,13.2,2.44c0.34,1.41,0.45,2.49,0.79,4.53h2.27c0.28-3.79,0.34-7.25,0.22-10.03h-29.91v2.09l1.65,0.34
		c3.74,0.68,4.08,0.79,4.13,2.04c0.06,1.31,0.06,3.63,0.06,6.35v18.58c0,2.72,0,5.04-0.06,6.34c-0.06,1.25-0.28,1.36-3.4,2.04
		l-1.65,0.34v2.1h31C276.08,71.75,277.27,66.31,277.49,61.1 M335.77,69.94c-3.23-0.68-4.3-1.93-8.9-6.96l-5.61-6.18
		c-1.59-1.76-2.49-2.55-3.57-3.23c4.42-1.13,8.05-5.38,8.05-10.71c0-4.59-2.72-8.73-7.6-10.26c-2.38-0.73-5.04-1.07-8.78-1.07
		c-3.17,0-4.25,0.11-6.51,0.11c-2.61,0-9.97-0.11-9.97-0.11v2.09l1.64,0.34c3.12,0.68,3.34,0.79,3.4,2.04
		c0.06,1.31,0.06,3.63,0.06,6.35v18.58c0,2.72,0,5.04-0.06,6.34c-0.06,1.25-0.28,1.36-3.4,2.04l-1.64,0.34v2.1h17.79v-2.1
		l-1.64-0.34c-3.12-0.68-3.35-0.79-3.4-2.04c-0.06-1.3-0.06-3.62-0.06-6.34v-5.5h4.59c0.79,0.68,1.25,1.19,2.49,2.66l5.33,6.51
		c5.61,6.91,8.44,8.05,17,7.48L335.77,69.94z M317.87,44.33c0,1.13-0.12,2.32-0.45,3.28c-0.91,2.66-2.5,4.53-5.61,4.53h-6.23V34.98
		c0.45-0.12,1.65-0.23,2.73-0.23c4.41,0,7.47,1.93,8.78,5.38C317.64,41.61,317.87,42.97,317.87,44.33 M383.24,60.25
		c0-4.36-3.01-9.01-10.14-10.03c3.91-1.19,7.19-4.53,7.19-9.35c0-3.35-1.65-6.29-4.76-7.82c-2.04-0.97-4.59-1.53-8.67-1.53
		c-2.72,0-5.21,0.11-7.25,0.11c-2.89,0-10.14-0.11-10.14-0.11v2.09l1.65,0.34c3.11,0.68,3.34,0.79,3.4,2.04
		c0.06,1.31,0.06,3.63,0.06,6.35v18.58c0,2.72,0,5.04-0.06,6.34c-0.06,1.25-0.28,1.36-3.4,2.04l-1.65,0.34v2.1
		c0,0,7.76-0.12,11.39-0.12c3.57,0,4.99,0.12,8.44,0.12C378.25,71.75,383.24,66.48,383.24,60.25 M372.8,42.85
		c0,1.98-0.62,3.97-1.7,5.16c-1.02,1.19-3,1.7-5.66,1.7h-3.29V34.7c0,0,1.02-0.11,2.44-0.11c4.02,0,6.06,1.3,7.14,3.45
		C372.41,39.34,372.8,41.04,372.8,42.85 M375.53,61.94c0,1.31-0.34,2.78-0.97,3.74c-1.13,1.98-3.12,2.95-6.34,2.95
		c-3.12,0-6.07-0.79-6.07-0.79V52.89h1.98c5.33,0,8.28,1.47,9.86,4.02C375.02,58.38,375.53,60.02,375.53,61.94 M441.92,50.56
		c0-7.88-3.28-13.88-9.4-17.17c-3.18-1.69-7.03-2.55-11.51-2.55c-5.21,0-9.46,1.08-12.86,3.06c-5.95,3.46-9.8,9.75-9.8,18.07
		c0,5.1,1.64,10.14,4.76,13.94c3.69,4.42,9.35,6.63,16.54,6.63c6.06,0,11.1-1.76,14.9-5.04C439.37,63.36,441.92,57.14,441.92,50.56
		 M433.48,51.7c0,3.56-0.56,7.19-1.75,9.91c-2.15,4.87-6.23,7.59-11.22,7.59h-0.51c-4.19,0-7.76-2.09-10.25-6.12
		c-1.93-3.12-3.12-7.65-3.12-12.58c0-7.42,2.27-12.35,6.63-14.79c1.92-1.07,4.14-1.59,6.91-1.59
		C429.23,34.13,433.48,42.23,433.48,51.7 M498.66,69.94c-3.23-0.68-4.31-1.93-8.9-6.96l-5.61-6.18c-1.59-1.76-2.49-2.55-3.56-3.23
		c4.42-1.13,8.04-5.38,8.04-10.71c0-4.59-2.72-8.73-7.59-10.26c-2.38-0.73-5.05-1.07-8.79-1.07c-3.17,0-4.25,0.11-6.52,0.11
		c-2.6,0-9.97-0.11-9.97-0.11v2.09l1.64,0.34c3.12,0.68,3.34,0.79,3.4,2.04c0.06,1.31,0.06,3.63,0.06,6.35v18.58
		c0,2.72,0,5.04-0.06,6.34c-0.06,1.25-0.28,1.36-3.4,2.04l-1.64,0.34v2.1h17.79v-2.1l-1.65-0.34c-3.12-0.68-3.34-0.79-3.4-2.04
		c-0.06-1.3-0.06-3.62-0.06-6.34v-5.5h4.59c0.79,0.68,1.25,1.19,2.5,2.66l5.32,6.51c5.61,6.91,8.44,8.05,17,7.48L498.66,69.94z
		 M480.76,44.33c0,1.13-0.12,2.32-0.45,3.28c-0.9,2.66-2.49,4.53-5.61,4.53h-6.23V34.98c0.46-0.12,1.65-0.23,2.72-0.23
		c4.42,0,7.48,1.93,8.78,5.38C480.53,41.61,480.76,42.97,480.76,44.33 M544.82,61.1h-2.32c-0.79,2.44-1.25,3.63-2.15,5.44
		c-0.85,1.76-1.81,2.04-8.44,2.04c-3.34,0-5.72-0.28-6.8-0.57V52.43c4.25,0,7.6,0.06,8.79,0.22c1.13,0.12,1.3,0.35,1.59,1.37
		c0.45,1.64,0.62,2.26,0.9,3.62h2.1V44.95h-2.1c-0.4,1.7-0.56,2.27-0.9,3.46c-0.23,0.74-0.57,0.79-1.59,0.91
		c-1.36,0.17-4.65,0.22-8.79,0.28V34.58c12.07,0,12.75,0.45,13.2,2.44c0.34,1.41,0.46,2.49,0.79,4.53h2.27
		c0.28-3.79,0.34-7.25,0.23-10.03h-29.92v2.09l1.65,0.34c3.74,0.68,4.08,0.79,4.13,2.04c0.06,1.31,0.06,3.63,0.06,6.35v18.58
		c0,2.72,0,5.04-0.06,6.34c-0.06,1.25-0.28,1.36-3.4,2.04l-1.65,0.34v2.1h31C543.4,71.75,544.59,66.31,544.82,61.1 M599.18,69.71
		l-3.29-1.02c-0.91-0.28-1.08-0.45-1.42-1.31l-12.63-32.91c-0.79-2.1-1.02-2.73-1.42-4.2c-3.51,1.02-4.87,1.76-5.94,5.1
		l-10.94,32.01c-0.34,0.97-0.79,1.19-1.81,1.47l-3.46,0.85v2.04h14.39v-2.04l-3.51-0.73c-1.53-0.34-1.64-0.79-1.47-1.47l2.21-7.65
		h13.54l2.78,7.6c0.28,0.74-0.06,1.25-0.85,1.41l-3.74,0.85v2.04h17.57V69.71z M574.36,44.55c0.9-3.12,1.53-5.61,1.53-5.61
		l6.23,17.22h-11.16L574.36,44.55z"/>
	<path class="st0" d="M49.32,1.63L2.05,48.9c-2.18,2.18-2.19,5.7-0.02,7.89l31.33,31.52c2.18,2.19,5.7,2.2,7.9,0.02l0.05-0.05
		l0.07,0.08l7.86-7.85c2.18-2.18,5.71-2.18,7.9,0l3.95,3.95l0,0.01l3.91,3.91c2.18,2.18,5.71,2.18,7.9,0l31.57-31.57
		c2.18-2.18,2.18-5.71,0-7.9L57.21,1.63C55.03-0.55,51.49-0.56,49.32,1.63 M49.21,49l0.1-0.1c2.17-2.18,5.71-2.2,7.89-0.03
		l0.01,0.01c2.19,2.18,2.19,5.73,0.01,7.91l-0.1,0.1c-2.19,2.18-5.72,2.18-7.9,0l-0.02-0.01C47.05,54.71,47.04,51.18,49.21,49
		 M64.99,64.75l7.97-7.97c2.19-2.19,2.18-5.73-0.01-7.91l-15.79-15.7c-2.19-2.17-5.72-2.16-7.89,0.03L33.53,49.03
		c-2.17,2.18-2.17,5.7,0.01,7.89l7.84,7.84c2.18,2.18,2.18,5.72,0,7.9l0,0.01c-2.19,2.18-5.73,2.18-7.91-0.02L17.72,56.81
		c-2.17-2.19-2.17-5.71,0.01-7.89l31.58-31.58c2.18-2.18,5.72-2.18,7.9,0l31.53,31.55c2.18,2.19,2.18,5.72,0,7.9L72.88,72.65
		c-2.18,2.18-5.72,2.18-7.9,0C62.8,70.47,62.8,66.93,64.99,64.75"/>
</g>
</svg>
