<?xml version="1.0" encoding="utf-8"?>
<!-- Generator: Adobe Illustrator 17.0.0, SVG Export Plug-In . SVG Version: 6.00 Build 0)  -->
<!DOCTYPE svg PUBLIC "-//W3C//DTD SVG 1.1//EN" "http://www.w3.org/Graphics/SVG/1.1/DTD/svg11.dtd">
<svg version="1.1" id="Layer_1" xmlns="http://www.w3.org/2000/svg" xmlns:xlink="http://www.w3.org/1999/xlink" x="0px" y="0px"
	 width="357.882px" height="45.683px" viewBox="0 0 357.882 45.683" enable-background="new 0 0 357.882 45.683"
	 xml:space="preserve">
<path d="M28.5,26.562v18.3h-7.86v-16.62c0-2.679-0.618-4.5-1.852-5.46c-1.234-0.96-2.607-1.44-4.12-1.44
	c-1.752,0-3.324,0.54-4.718,1.62c-1.394,1.08-2.091,2.901-2.091,5.46v16.44H0v-29.76h7.44l0.239,2.94c0.84-1.16,2.04-2.09,3.6-2.79
	c1.56-0.699,3.26-1.05,5.1-1.05c3.88,0,6.871,1.071,8.971,3.21C27.45,19.552,28.5,22.602,28.5,26.562z M46.236,14.262
	c2.319,0,4.43,0.39,6.33,1.17c1.899,0.78,3.53,1.86,4.89,3.24c1.359,1.38,2.42,3.03,3.18,4.95c0.759,1.92,1.14,4.02,1.14,6.3
	s-0.381,4.38-1.14,6.3c-0.76,1.92-1.821,3.57-3.18,4.95c-1.36,1.38-2.991,2.46-4.89,3.24c-1.9,0.78-4.011,1.17-6.33,1.17
	c-2.32,0-4.44-0.39-6.36-1.17c-1.92-0.78-3.561-1.86-4.92-3.24c-1.36-1.38-2.421-3.03-3.18-4.95c-0.76-1.92-1.14-4.02-1.14-6.3
	s0.38-4.38,1.14-6.3c0.759-1.92,1.82-3.57,3.18-4.95c1.359-1.38,3-2.46,4.92-3.24C41.796,14.652,43.916,14.262,46.236,14.262z
	 M46.206,38.562c2.288,0,4.146-0.8,5.572-2.4c1.425-1.599,2.138-3.68,2.138-6.24c0-2.559-0.713-4.64-2.138-6.24
	c-1.426-1.599-3.283-2.4-5.572-2.4c-2.329,0-4.196,0.801-5.602,2.4c-1.406,1.6-2.108,3.681-2.108,6.24
	c0,2.56,0.702,4.641,2.108,6.24C42.01,37.762,43.877,38.562,46.206,38.562z M80.928,14.682c1.08,0,2.24,0.141,3.48,0.42v7.2
	c-1.08-0.279-2.2-0.42-3.36-0.42c-2.52,0-4.47,0.78-5.85,2.34c-1.38,1.56-2.07,3.741-2.07,6.54v14.1h-7.86v-29.7h7.204l0.416,3.42
	c0.639-1.28,1.689-2.25,3.15-2.91C77.498,15.012,79.128,14.682,80.928,14.682z M110.569,44.862c-0.081-0.356-0.16-0.831-0.24-1.425
	c-0.081-0.593-0.16-1.326-0.24-2.198c-0.96,1.388-2.31,2.469-4.05,3.243c-1.74,0.773-3.651,1.16-5.73,1.16
	c-2.16,0-4.15-0.34-5.97-1.02c-1.821-0.68-3.4-1.68-4.74-3c-1.341-1.32-2.38-2.949-3.12-4.89c-0.741-1.94-1.11-4.19-1.11-6.75
	c0-2.36,0.38-4.509,1.14-6.45c0.759-1.94,1.809-3.6,3.15-4.98c1.34-1.38,2.94-2.45,4.8-3.21c1.86-0.759,3.87-1.14,6.03-1.14
	c1.92,0,3.729,0.337,5.43,1.012c1.7,0.675,3.05,1.666,4.05,2.975V0.042h7.86v37.146c0,1.161,0.06,2.62,0.18,4.38
	c0.12,1.801,0.26,2.902,0.42,3.301L110.569,44.862z M109.729,29.922c0-2.658-0.763-4.772-2.288-6.343
	c-1.526-1.571-3.513-2.357-5.962-2.357c-2.409,0-4.387,0.786-5.932,2.357c-1.546,1.571-2.318,3.685-2.318,6.343
	c0,2.659,0.772,4.773,2.318,6.344c1.545,1.571,3.522,2.356,5.932,2.356c2.449,0,4.435-0.785,5.962-2.356
	C108.966,34.694,109.729,32.58,109.729,29.922z M120.151,4.962c0-1.32,0.459-2.43,1.38-3.33c0.92-0.9,2.04-1.35,3.36-1.35
	s2.439,0.45,3.36,1.35c0.92,0.9,1.38,2.01,1.38,3.33c0,1.36-0.46,2.49-1.38,3.39c-0.921,0.9-2.04,1.35-3.36,1.35
	s-2.44-0.45-3.36-1.35C120.61,7.452,120.151,6.322,120.151,4.962z M128.851,15.102v29.76h-7.86v-29.76H128.851z M146.568,14.202
	c3.48,0,6.45,0.843,8.91,2.528s4.11,3.923,4.95,6.712l-6.72,2.7c-0.48-1.479-1.35-2.67-2.61-3.57s-2.73-1.35-4.41-1.35
	c-2.4,0-4.27,0.796-5.61,2.387c-1.341,1.591-2.01,3.715-2.01,6.373c0,2.699,0.69,4.814,2.07,6.344c1.38,1.531,3.23,2.296,5.55,2.296
	c1.68,0,3.159-0.429,4.44-1.29c1.28-0.86,2.18-2.01,2.7-3.45l6.6,2.46c-0.96,2.869-2.7,5.137-5.22,6.802
	c-2.52,1.666-5.421,2.498-8.7,2.498c-2.28,0-4.36-0.381-6.24-1.14c-1.881-0.759-3.49-1.82-4.83-3.18
	c-1.341-1.359-2.38-3.009-3.12-4.95c-0.741-1.94-1.11-4.07-1.11-6.39c0-2.36,0.369-4.5,1.11-6.42c0.74-1.92,1.779-3.579,3.12-4.98
	c1.34-1.4,2.96-2.48,4.86-3.24C142.198,14.582,144.288,14.202,146.568,14.202z M193.428,7.062c-1.68,0-2.841,0.411-3.48,1.23
	c-0.64,0.82-0.96,1.99-0.96,3.51v3.3h7.08v6.48h-7.08v23.28h-7.8l-0.06-23.28h-4.2v-6.48h4.2v-3.3c0-3.999,0.999-6.96,3-8.88
	c2-1.92,4.76-2.88,8.28-2.88c1.04,0,2.28,0.12,3.72,0.36v6.96c-0.561-0.08-1.071-0.15-1.53-0.21
	C194.138,7.092,193.748,7.062,193.428,7.062z M226.974,32.742h-22.44c0.24,2.08,1.07,3.64,2.49,4.68
	c1.419,1.041,3.11,1.56,5.07,1.56c3.36,0,5.76-1.419,7.2-4.26l6.48,2.58c-1.08,2.64-2.85,4.69-5.31,6.15
	c-2.46,1.46-5.25,2.19-8.37,2.19c-2.2,0-4.221-0.381-6.06-1.14c-1.84-0.759-3.42-1.82-4.74-3.18c-1.32-1.359-2.34-3.009-3.06-4.95
	c-0.72-1.94-1.08-4.07-1.08-6.39c0-2.36,0.36-4.5,1.08-6.42c0.72-1.92,1.74-3.579,3.06-4.98c1.32-1.4,2.91-2.48,4.77-3.24
	c1.86-0.759,3.909-1.14,6.15-1.14c2.199,0,4.209,0.37,6.03,1.11c1.82,0.741,3.369,1.8,4.65,3.18c1.28,1.38,2.28,3.04,3,4.98
	c0.72,1.941,1.08,4.11,1.08,6.51V32.742z M218.994,27.342c-0.16-2.199-0.84-3.86-2.04-4.98c-1.2-1.119-2.82-1.68-4.86-1.68
	c-2.04,0-3.7,0.57-4.98,1.71c-1.281,1.14-2.1,2.79-2.46,4.95H218.994z M240.672,39.402c1.28,0,2.31-0.249,3.09-0.75
	c0.78-0.5,1.17-1.25,1.17-2.25c0-1.44-0.96-2.4-2.88-2.88l-3.96-1.08c-3.12-0.8-5.34-1.94-6.66-3.42
	c-1.32-1.479-1.98-3.26-1.98-5.34c0-2.76,0.999-5.03,3-6.81c2-1.779,4.76-2.67,8.28-2.67c3,0,5.54,0.681,7.62,2.04
	c2.079,1.36,3.339,3.3,3.78,5.82l-7.02,1.62c-0.12-0.999-0.561-1.779-1.32-2.34c-0.76-0.56-1.701-0.84-2.82-0.84
	c-1.161,0-2.091,0.27-2.79,0.81c-0.7,0.54-1.05,1.29-1.05,2.25c0,0.72,0.26,1.32,0.78,1.8c0.519,0.48,1.38,0.88,2.58,1.2l3.9,1.02
	c5.6,1.48,8.4,4.42,8.4,8.82c0,2.8-1.06,5.04-3.18,6.72c-2.121,1.68-5.061,2.52-8.82,2.52c-3.64,0-6.49-0.771-8.55-2.31
	c-2.061-1.539-3.27-3.59-3.63-6.15l7.2-1.2c0.08,1.041,0.549,1.87,1.41,2.49C238.082,39.092,239.232,39.402,240.672,39.402z
	 M285.582,44.862h-7.86v-23.28h-10.44v23.28h-7.74v-23.28h-5.7v-6.48h5.7v-9.24h7.74v9.24h18.3V44.862z M277.002,4.962
	c0-1.32,0.459-2.43,1.38-3.33c0.92-0.9,2.04-1.35,3.36-1.35c1.28,0,2.379,0.45,3.3,1.35c0.92,0.9,1.38,2.01,1.38,3.33
	s-0.45,2.44-1.35,3.36c-0.9,0.921-2.01,1.38-3.33,1.38c-1.32,0-2.44-0.45-3.36-1.35C277.461,7.452,277.002,6.322,277.002,4.962z
	 M319.782,15.102l-12.36,29.76h-7.74l-11.82-29.76h8.46l7.44,20.46l7.92-20.46H319.782z M339.516,44.862
	c-0.081-0.44-0.15-0.92-0.21-1.44c-0.06-0.519-0.13-1.059-0.21-1.62c-0.801,1.12-1.96,2.04-3.48,2.76
	c-1.521,0.72-3.3,1.08-5.34,1.08c-3.24,0-5.85-0.86-7.83-2.58c-1.98-1.719-2.97-4.08-2.97-7.08s0.96-5.31,2.88-6.93
	s4.56-2.43,7.92-2.43h8.64v-1.02c0-1.8-0.531-3.099-1.59-3.9c-1.06-0.8-2.49-1.2-4.29-1.2c-3.28,0-5.64,1.401-7.08,4.2l-5.7-3.24
	c2.559-4.839,6.98-7.26,13.26-7.26c3.8,0,6.92,0.981,9.36,2.94c2.439,1.96,3.66,5.16,3.66,9.6v11.4c0,1.44,0.05,2.8,0.15,4.08
	c0.099,1.281,0.23,2.16,0.39,2.64H339.516z M338.976,31.962H332.1c-1.528,0-2.704,0.351-3.528,1.05
	c-0.825,0.7-1.237,1.65-1.237,2.85c0,1.24,0.432,2.2,1.297,2.88c0.864,0.681,2.101,1.02,3.71,1.02c0.884,0,1.728-0.129,2.532-0.39
	c0.804-0.26,1.508-0.68,2.111-1.26c0.603-0.579,1.086-1.32,1.448-2.22c0.362-0.9,0.543-2.01,0.543-3.33V31.962z M350.022,0.042h7.86
	v44.82h-7.86V0.042z"/>
</svg>
