<?xml version="1.0" encoding="utf-8"?>
<!-- Generator: Adobe Illustrator 23.0.1, SVG Export Plug-In . SVG Version: 6.00 Build 0)  -->
<svg version="1.1" id="Layer_1" xmlns="http://www.w3.org/2000/svg" xmlns:xlink="http://www.w3.org/1999/xlink" x="0px" y="0px"
	 viewBox="0 0 502.6 47.7" style="enable-background:new 0 0 502.6 47.7;" xml:space="preserve">
<g>
	<path d="M23.6,41.7c0,0.6,0.2,1.1,0.7,1.4l5.5,3.8v0.1H8.2v-0.1l5.5-3.8c0.5-0.4,0.8-0.8,0.8-1.4V2H8.7C8.2,2,7.8,2.1,7.6,2.2
		C7.4,2.4,7.2,2.7,7,3.2L0.1,17.1H0V0.8h38v16.3h-0.1L31.1,3.2c-0.2-0.5-0.4-0.9-0.6-1C30.3,2.1,29.9,2,29.4,2h-5.8V41.7z"/>
</g>
<g>
	<path d="M83.3,5.9v36c0,0.6,0.3,1.1,0.8,1.4l5.1,3.6v0.1H68.4v-0.1l5.1-3.6c0.5-0.4,0.7-0.9,0.7-1.4V24H56.5v18
		c0,0.6,0.3,1.1,0.8,1.4l5.1,3.6v0.1H41.5v-0.1l5.1-3.6c0.5-0.4,0.7-0.8,0.7-1.4v-36c0-0.6-0.2-1.1-0.7-1.4l-5.1-3.6V0.8h20.8v0.1
		l-5.1,3.6c-0.5,0.4-0.8,0.9-0.8,1.4v16.8h17.7V5.9c0-0.6-0.2-1.1-0.7-1.4l-5.1-3.6V0.8h20.8v0.1l-5.1,3.6
		C83.6,4.9,83.3,5.4,83.3,5.9z"/>
</g>
<g>
	<path d="M127.6,47.1h-35v-0.1l5.1-3.6c0.5-0.4,0.7-0.8,0.7-1.4v-36c0-0.6-0.2-1.1-0.7-1.4l-5.1-3.6V0.8H127v15h-0.1l-6.9-12.6
		c-0.4-0.7-1-1.1-1.8-1.1h-9.5c-0.4,0-0.7,0.1-0.9,0.3c-0.1,0.2-0.2,0.5-0.2,1.1V23h6.5c0.7,0,1.3-0.4,1.8-1.1l5-6.3h0.1v16.1h-0.1
		l-5-6.4c-0.6-0.7-1.2-1.1-1.8-1.1h-6.4v20.2c0,0.6,0.1,0.9,0.2,1.1c0.1,0.2,0.4,0.3,0.9,0.3h9.9c1.1,0,1.8-0.3,2.1-0.9l6.9-12.9
		h0.1V47.1z"/>
</g>
<g>
	<path d="M165,29.4h-5v11.8c0,0.9,0.2,1.5,0.7,1.8l7.3,3.8v0.1h-23v-0.1l5.1-3.6c0.5-0.4,0.7-0.8,0.7-1.4v-36c0-0.6-0.2-1.1-0.7-1.4
		l-5.1-3.6V0.8h21.2c5,0,9.1,1.1,12.2,3.4c3.1,2.3,4.7,5.8,4.7,10.6c0,4.7-1.7,8.3-5,10.8C174.7,28.2,170.4,29.4,165,29.4z M160,3.4
		v24.8h3.8c2.8,0,5.1-1.1,6.9-3.3c1.8-2.2,2.7-5.5,2.7-9.9c0-4.2-0.8-7.4-2.5-9.6C169.2,3.1,167,2,164.2,2h-2.9
		c-0.5,0-0.8,0.1-1,0.3C160.1,2.5,160,2.8,160,3.4z"/>
</g>
<g>
	<path d="M217.5,40.8c0.4,1.1,0.8,1.9,1.4,2.6l2.8,3.5v0.1h-17.8v-0.1l3.9-3.9c0.4-0.4,0.5-1,0.3-1.7l-3.4-10.4h-15.1l-2.5,7.6
		c-0.1,0.5-0.2,0.8-0.1,1.1c0,0.2,0.3,0.5,0.7,0.9l6,6.5v0.1h-15.1v-0.1l5.7-6.3c0.8-0.9,1.4-1.8,1.6-2.6L196,7.5
		c0.2-0.7,0.3-1.1,0.2-1.3c-0.1-0.2-0.3-0.6-0.7-1l-3.8-4.2V0.8h12.6L217.5,40.8z M197.3,8L190,29.6h14.3L197.3,8z"/>
</g>
<g>
	<path d="M238.6,47.7c-4.5,0-8.7-0.6-12.8-1.8V31.3h0.1l7.2,13.9c0.4,0.7,0.9,1.1,1.4,1.2c1.5,0.2,2.6,0.3,3.4,0.3
		c2.9,0,5.3-0.7,7.2-2.1c1.8-1.4,2.8-3.5,2.8-6.2c0-2.1-0.7-3.8-2-5.2c-1.4-1.3-3.6-2.8-6.6-4.2l-4-1.9c-7-3.2-10.5-7.8-10.5-13.7
		c0-3.9,1.4-7.1,4.3-9.5c2.9-2.4,6.6-3.6,11.3-3.6c3.9,0,7.8,0.5,11.9,1.5v14.2H252l-7.4-13.3c-0.4-0.7-0.9-1.1-1.4-1.2
		c-0.5,0-1.3-0.1-2.3-0.1c-2.7,0-4.8,0.7-6.5,2.2C232.8,5,232,7,232,9.5c0,2,0.6,3.7,1.9,5c1.3,1.3,3.1,2.5,5.5,3.7l4.9,2.3
		c3.8,1.8,6.6,3.6,8.5,5.5c1.9,1.9,2.8,4.4,2.8,7.5c0,4.1-1.5,7.5-4.6,10.2C247.8,46.4,243.7,47.7,238.6,47.7z"/>
</g>
<g>
	<path d="M273.8,47.7c-4.5,0-8.7-0.6-12.8-1.8V31.3h0.1l7.2,13.9c0.4,0.7,0.9,1.1,1.4,1.2c1.5,0.2,2.6,0.3,3.4,0.3
		c2.9,0,5.3-0.7,7.2-2.1c1.8-1.4,2.8-3.5,2.8-6.2c0-2.1-0.7-3.8-2-5.2c-1.4-1.3-3.6-2.8-6.6-4.2l-4-1.9c-7-3.2-10.5-7.8-10.5-13.7
		c0-3.9,1.4-7.1,4.3-9.5c2.9-2.4,6.6-3.6,11.3-3.6c3.9,0,7.8,0.5,11.9,1.5v14.2h-0.1l-7.4-13.3c-0.4-0.7-0.9-1.1-1.4-1.2
		c-0.5,0-1.3-0.1-2.3-0.1c-2.7,0-4.8,0.7-6.5,2.2c-1.6,1.5-2.4,3.5-2.4,6.1c0,2,0.6,3.7,1.9,5c1.3,1.3,3.1,2.5,5.5,3.7l4.9,2.3
		c3.8,1.8,6.6,3.6,8.5,5.5c1.9,1.9,2.8,4.4,2.8,7.5c0,4.1-1.5,7.5-4.6,10.2C282.9,46.4,278.8,47.7,273.8,47.7z"/>
</g>
<g>
	<path d="M327.4,47.1h-35v-0.1l5.1-3.6c0.5-0.4,0.7-0.8,0.7-1.4v-36c0-0.6-0.2-1.1-0.7-1.4l-5.1-3.6V0.8h34.4v15h-0.1l-6.9-12.6
		c-0.4-0.7-1-1.1-1.8-1.1h-9.5c-0.4,0-0.7,0.1-0.9,0.3c-0.1,0.2-0.2,0.5-0.2,1.1V23h6.5c0.7,0,1.3-0.4,1.8-1.1l5-6.3h0.1v16.1h-0.1
		l-5-6.4c-0.6-0.7-1.2-1.1-1.8-1.1h-6.4v20.2c0,0.6,0.1,0.9,0.2,1.1c0.1,0.2,0.4,0.3,0.9,0.3h9.9c1.1,0,1.8-0.3,2.1-0.9l6.9-12.9
		h0.1V47.1z"/>
</g>
<g>
	<path d="M332.1,0.8h13.3l23,36.9V9.4c0-0.7-0.3-1.4-0.9-2l-6.5-6.5V0.8h16.1v0.1l-6.4,6.5c-0.7,0.7-1,1.4-1,2v37.7h-6.1L340.2,9.5
		v28.9c0,0.7,0.3,1.4,1,2l6.5,6.5v0.1h-16.1v-0.1l6.5-6.5c0.6-0.6,0.9-1.3,0.9-2V8.9c0-0.9-0.2-1.6-0.7-2.2l-6-5.8V0.8z"/>
</g>
<g>
	<path d="M397.8,47.7c-6.6,0-11.7-2.1-15.2-6.4c-3.5-4.2-5.3-10-5.3-17.3c0-7.2,1.9-13,5.8-17.3c3.9-4.4,9.2-6.5,16.1-6.5
		c4.9,0,9.5,0.5,13.8,1.4v14.9h-0.1l-8.2-13.9c-0.3-0.5-0.6-0.9-0.8-1c-0.2-0.2-0.6-0.3-1.2-0.3c-0.6,0-1.4-0.1-2.3-0.1
		c-8.4,0-12.6,7.5-12.6,22.4c0,7.8,0.9,13.6,2.7,17.3c1.8,3.7,4.7,5.6,8.5,5.6c1.4,0,2.9-0.3,4.3-0.8c0.5-0.2,0.8-0.6,0.8-1.3V32.1
		c0-0.7-0.2-1.3-0.7-1.6l-4.5-3.7v-0.1h19.5v0.1l-4.5,3.6c-0.5,0.4-0.7,1-0.7,1.7v15.7l-8-1.5C402.8,47.2,400.3,47.7,397.8,47.7z"/>
</g>
<g>
	<path d="M454.1,47.1h-35v-0.1l5.1-3.6c0.5-0.4,0.7-0.8,0.7-1.4v-36c0-0.6-0.2-1.1-0.7-1.4l-5.1-3.6V0.8h34.4v15h-0.1l-6.9-12.6
		c-0.4-0.7-1-1.1-1.8-1.1h-9.5c-0.4,0-0.7,0.1-0.9,0.3c-0.1,0.2-0.2,0.5-0.2,1.1V23h6.5c0.7,0,1.3-0.4,1.8-1.1l5-6.3h0.1v16.1h-0.1
		l-5-6.4c-0.6-0.7-1.2-1.1-1.8-1.1H434v20.2c0,0.6,0.1,0.9,0.2,1.1c0.1,0.2,0.4,0.3,0.9,0.3h9.9c1.1,0,1.8-0.3,2.1-0.9l6.9-12.9h0.1
		V47.1z"/>
	<path d="M476.3,25.8h-2.8V42c0,0.6,0.3,1.1,0.8,1.4l5.2,3.5v0.1h-20.9v-0.1l5.1-3.6c0.5-0.4,0.7-0.8,0.7-1.4v-36
		c0-0.6-0.2-1.1-0.7-1.4l-5.1-3.6V0.8h22.4c4.5,0,8.1,1,11,3.1c2.9,2,4.3,5.1,4.3,9.2c0,3.1-1.1,5.7-3.3,7.9
		c-2.2,2.2-5.2,3.5-9.1,4.1v0.1l4.9,2.6l8.1,14c0.5,0.9,1.1,1.7,2,2.4l3.2,2.8v0.1h-12.6L478,26.8C477.6,26.1,477,25.8,476.3,25.8z
		 M473.5,3.4v21.2h3.3c6.3,0,9.5-3.7,9.5-11c0-4.1-0.8-7.1-2.3-8.9c-1.5-1.8-3.8-2.7-6.6-2.7h-2.6c-0.5,0-0.8,0.1-1,0.3
		C473.5,2.5,473.5,2.8,473.5,3.4z"/>
</g>
</svg>
