<?xml version="1.0" encoding="utf-8"?>
<!-- Generator: Adobe Illustrator 17.0.0, SVG Export Plug-In . SVG Version: 6.00 Build 0)  -->
<!DOCTYPE svg PUBLIC "-//W3C//DTD SVG 1.1//EN" "http://www.w3.org/Graphics/SVG/1.1/DTD/svg11.dtd">
<svg version="1.1" id="Layer_1" xmlns="http://www.w3.org/2000/svg" xmlns:xlink="http://www.w3.org/1999/xlink" x="0px" y="0px"
	 width="58.04px" height="58.09px" viewBox="0 0 58.04 58.09" enable-background="new 0 0 58.04 58.09" xml:space="preserve">
<g>
	<path d="M38.347,29.191c0,0.649-0.222,1.2-0.668,1.652c-0.445,0.452-1.004,0.678-1.677,0.678c-0.653,0-1.202-0.226-1.648-0.678
		c-0.445-0.452-0.668-1.003-0.668-1.652c0-0.649,0.223-1.2,0.668-1.652c0.446-0.452,0.995-0.679,1.648-0.679
		c0.673,0,1.232,0.227,1.677,0.679C38.125,27.991,38.347,28.542,38.347,29.191 M31.356,36.043c0,0.673-0.226,1.232-0.679,1.677
		c-0.452,0.445-1.003,0.668-1.652,0.668s-1.199-0.223-1.652-0.668c-0.452-0.445-0.678-1.004-0.678-1.677
		c0-0.654,0.226-1.203,0.678-1.648c0.453-0.445,1.003-0.668,1.652-0.668s1.2,0.223,1.652,0.668
		C31.13,34.84,31.356,35.389,31.356,36.043 M31.356,22.06c0,0.673-0.226,1.232-0.679,1.677c-0.452,0.445-1.003,0.668-1.652,0.668
		s-1.199-0.223-1.652-0.668c-0.452-0.445-0.678-1.004-0.678-1.677c0-0.653,0.226-1.203,0.678-1.648
		c0.453-0.445,1.003-0.668,1.652-0.668s1.2,0.223,1.652,0.668C31.129,20.857,31.356,21.407,31.356,22.06 M24.364,29.191
		c0,0.649-0.222,1.2-0.668,1.652c-0.445,0.452-1.004,0.678-1.677,0.678c-0.653,0-1.202-0.226-1.648-0.678
		c-0.445-0.452-0.667-1.003-0.667-1.652c-0.001-0.649,0.222-1.2,0.667-1.652c0.446-0.452,0.995-0.679,1.648-0.679
		c0.673,0,1.232,0.227,1.677,0.679C24.142,27.991,24.364,28.542,24.364,29.191 M58.05,29.28c-0.014-0.621-0.278-1.188-0.694-1.604
		c-0.416-0.416-0.984-0.68-1.605-0.695l-7.69-0.041l0.79-0.79c0.893-0.893,0.893-2.341,0-3.235c-0.893-0.893-2.342-0.893-3.235,0
		l-1.607,1.607c-0.659,0.66-1.62,0.829-2.438,0.514l-1.033-1.032c-0.155-0.155-0.273-0.33-0.374-0.513
		c-0.219-0.772-0.035-1.634,0.572-2.242l1.626-1.625c0.724-0.724,0.85-1.809,0.4-2.671c-0.098-0.385-0.289-0.751-0.59-1.053
		c-0.893-0.893-2.342-0.893-3.235,0l-1.607,1.607c-0.893,0.893-2.341,0.893-3.234,0l-0.038-0.038
		c-0.894-0.893-0.894-2.342-0.001-3.235l1.625-1.625c0.894-0.893,0.894-2.341,0.001-3.234c-0.894-0.894-2.342-0.894-3.235,0
		l-1.182,1.181l0.046-8.317c0.028-1.242-0.956-2.225-2.197-2.197c-0.621,0.014-1.189,0.278-1.605,0.694
		c-0.416,0.416-0.68,0.984-0.694,1.604l-0.043,7.844l-0.819-0.819c-0.893-0.893-2.341-0.893-3.235,0
		c-0.893,0.894-0.893,2.342,0.001,3.235l1.606,1.607c0.894,0.893,0.894,2.341,0,3.234l-0.038,0.039
		c-0.893,0.893-2.341,0.893-3.235,0l-1.625-1.625c-0.893-0.893-2.341-0.893-3.234,0c-0.127,0.127-0.231,0.267-0.322,0.414
		c-0.045,0.038-0.094,0.069-0.137,0.112c-0.893,0.893-0.893,2.341,0,3.234l1.607,1.607c0.841,0.841,0.88,2.169,0.137,3.067
		l-0.343,0.343c-0.899,0.743-2.226,0.704-3.067-0.137l-1.625-1.625c-0.893-0.893-2.341-0.893-3.235,0
		c-0.893,0.893-0.893,2.342,0,3.235l0.843,0.842l-7.854-0.043c-1.241-0.028-2.225,0.956-2.197,2.198
		c0.014,0.62,0.278,1.188,0.694,1.604c0.416,0.416,0.984,0.68,1.605,0.694l8.054,0.044L9.2,32.599c-0.893,0.893-0.893,2.341,0,3.234
		s2.342,0.893,3.235,0l1.607-1.607c0.893-0.893,2.341-0.893,3.234,0l0.039,0.039c0.893,0.893,0.893,2.341,0,3.234l-1.625,1.625
		c-0.894,0.893-0.894,2.341,0,3.234c0.365,0.366,0.825,0.574,1.3,0.64c0.816,0.31,1.772,0.14,2.429-0.517l1.607-1.607
		c0.551-0.55,1.312-0.759,2.024-0.631c0.267,0.112,0.517,0.274,0.734,0.491l1.052,1.052c0.276,0.801,0.103,1.722-0.537,2.361
		l-1.625,1.625c-0.893,0.893-0.893,2.342,0,3.235s2.342,0.893,3.235,0l0.872-0.873l-0.042,7.759
		c-0.028,1.242,0.956,2.226,2.197,2.197c0.621-0.014,1.189-0.278,1.605-0.694c0.416-0.416,0.68-0.983,0.694-1.604l0.043-7.9
		l1.125,1.124c0.893,0.893,2.341,0.893,3.234,0s0.893-2.341,0-3.235l-1.607-1.607c-0.893-0.893-0.893-2.341,0-3.234l0.039-0.038
		c0.893-0.894,2.341-0.894,3.234,0l1.625,1.625c0.893,0.893,2.342,0.893,3.235,0c0.031-0.032,0.053-0.069,0.083-0.102
		c0.022-0.021,0.048-0.035,0.07-0.057c0.893-0.894,0.893-2.342,0-3.235l-1.607-1.607c-0.893-0.893-0.893-2.341,0-3.234l0.039-0.039
		c0.893-0.893,2.341-0.893,3.234,0l1.625,1.625c0.893,0.893,2.342,0.893,3.235,0s0.893-2.341,0-3.234l-1.212-1.212l8.222,0.045
		C57.094,31.506,58.078,30.522,58.05,29.28"/>
</g>
</svg>
